<?xml version="1.0" standalone="no"?>
<!DOCTYPE svg PUBLIC "-//W3C//DTD SVG 20010904//EN"
 "http://www.w3.org/TR/2001/REC-SVG-20010904/DTD/svg10.dtd">
<svg version="1.0" xmlns="http://www.w3.org/2000/svg"
 width="2048.000000pt" height="2048.000000pt" viewBox="0 0 2048.000000 2048.000000"
 preserveAspectRatio="xMidYMid meet">

<g transform="translate(0.000000,2048.000000) scale(0.100000,-0.100000)"
fill="#000000" stroke="none">
<path d="M3195 19103 c-504 -62 -921 -269 -1265 -629 -306 -320 -494 -719
-549 -1164 -16 -125 -13 -392 5 -522 81 -586 407 -1102 904 -1432 234 -155
512 -263 806 -313 161 -27 505 -24 664 5 430 79 800 271 1100 572 514 513 714
1252 534 1965 -148 585 -591 1108 -1143 1350 -284 126 -533 176 -849 174 -97
-1 -190 -4 -207 -6z"/>
<path d="M9947 19094 c-713 -103 -1329 -584 -1601 -1250 -184 -450 -202 -960
-51 -1420 43 -130 153 -358 225 -469 114 -174 312 -390 465 -506 388 -296 847
-443 1330 -426 509 19 968 212 1333 562 190 182 315 351 425 574 221 447 272
951 146 1431 -210 797 -881 1390 -1698 1504 -139 20 -438 19 -574 0z"/>
<path d="M16760 19090 c-441 -68 -826 -264 -1141 -579 -178 -179 -290 -337
-400 -566 -206 -425 -254 -936 -133 -1395 219 -831 918 -1429 1779 -1521 134
-14 392 -6 525 16 343 58 647 188 922 396 106 80 296 270 375 374 223 296 357
615 408 977 17 121 20 397 4 518 -44 360 -181 702 -397 989 -72 96 -245 275
-339 353 -166 136 -410 274 -603 343 -119 42 -291 84 -416 100 -157 21 -435
18 -584 -5z"/>
<path d="M3225 12279 c-707 -69 -1324 -490 -1640 -1119 -101 -201 -169 -419
-199 -639 -21 -145 -21 -417 0 -562 87 -625 458 -1175 1005 -1492 585 -338
1295 -365 1906 -72 501 240 882 672 1056 1196 216 647 102 1338 -311 1889 -71
95 -245 274 -342 353 -178 143 -428 281 -642 351 -258 86 -570 121 -833 95z"/>
<path d="M10045 12279 c-389 -37 -796 -204 -1095 -449 -229 -187 -422 -431
-551 -695 -410 -844 -194 -1858 526 -2463 476 -400 1120 -563 1728 -437 1105
229 1817 1308 1593 2414 -208 1022 -1162 1729 -2201 1630z"/>
<path d="M16920 12284 c-677 -62 -1240 -404 -1595 -969 -405 -643 -405 -1507
0 -2150 118 -188 281 -374 441 -506 509 -417 1187 -565 1824 -398 793 208
1391 882 1504 1698 21 145 21 416 0 562 -124 890 -808 1591 -1699 1739 -116
20 -379 33 -475 24z"/>
<path d="M3190 5450 c-860 -105 -1544 -700 -1759 -1530 -43 -164 -61 -315 -61
-503 0 -336 63 -614 205 -902 308 -626 902 -1049 1595 -1134 108 -14 386 -14
487 -1 697 93 1269 494 1582 1110 139 273 206 537 218 855 9 256 -22 470 -102
711 -242 728 -854 1251 -1615 1379 -112 19 -441 28 -550 15z"/>
<path d="M9990 5445 c-360 -45 -693 -180 -990 -403 -100 -75 -276 -247 -360
-352 -99 -125 -164 -228 -240 -385 -188 -384 -249 -801 -180 -1224 144 -882
846 -1567 1737 -1695 145 -21 416 -21 564 0 797 111 1463 686 1684 1456 118
408 109 815 -26 1222 -174 520 -550 950 -1046 1192 -346 169 -757 237 -1143
189z"/>
<path d="M16880 5453 c-428 -44 -811 -205 -1140 -481 -363 -303 -615 -751
-695 -1232 -9 -52 -19 -165 -22 -250 -31 -808 407 -1546 1134 -1910 283 -141
577 -209 905 -210 340 0 603 59 903 205 222 108 394 234 575 421 223 231 375
484 475 789 66 202 95 392 95 632 0 554 -207 1053 -599 1444 -339 338 -753
535 -1236 589 -84 9 -317 11 -395 3z"/>
</g>
</svg>
